<?xml version="1.0" encoding="UTF-8"?>
<svg xmlns="http://www.w3.org/2000/svg" xmlns:xlink="http://www.w3.org/1999/xlink" width="30px" height="30px" viewBox="0 0 30 30" version="1.1">
<g id="surface1">
<path style=" stroke:none;fill-rule:nonzero;fill:rgb(0%,0%,0%);fill-opacity:1;" d="M 29.058594 7.335938 L 29.058594 23.628906 C 29.058594 24.6875 28.199219 25.546875 27.140625 25.546875 L 22.667969 25.546875 L 22.667969 14.683594 L 15 20.4375 L 7.332031 14.683594 L 7.332031 25.546875 L 2.859375 25.546875 C 1.800781 25.546875 0.941406 24.691406 0.941406 23.632812 C 0.941406 23.632812 0.941406 23.628906 0.941406 23.628906 L 0.941406 7.335938 C 0.941406 5.746094 2.230469 4.460938 3.816406 4.460938 C 4.46875 4.460938 5.066406 4.675781 5.550781 5.039062 L 5.542969 5.035156 L 15 12.128906 L 24.457031 5.035156 C 24.933594 4.675781 25.53125 4.460938 26.183594 4.460938 C 27.769531 4.460938 29.058594 5.746094 29.058594 7.335938 Z M 29.058594 7.335938 "/>
</g>
</svg>
