<?xml version="1.0" encoding="UTF-8"?>
<svg xmlns="http://www.w3.org/2000/svg" xmlns:xlink="http://www.w3.org/1999/xlink" width="30px" height="30px" viewBox="0 0 30 30" version="1.1">
<g id="surface1">
<path style=" stroke:none;fill-rule:nonzero;fill:rgb(0%,0%,0%);fill-opacity:1;" d="M 30 30 L 0 30 L 0 0 L 30 0 Z M 18.765625 11.242188 L 18.765625 20.398438 C 18.765625 20.648438 18.765625 20.691406 18.609375 20.851562 L 16.980469 22.433594 L 16.980469 22.769531 L 24.882812 22.769531 L 24.882812 22.433594 L 23.308594 20.890625 C 23.195312 20.800781 23.125 20.667969 23.125 20.515625 C 23.125 20.488281 23.128906 20.460938 23.132812 20.433594 L 23.132812 20.4375 L 23.132812 9.101562 C 23.128906 9.078125 23.125 9.050781 23.125 9.023438 C 23.125 8.871094 23.199219 8.734375 23.308594 8.648438 L 23.3125 8.648438 L 24.917969 7.105469 L 24.917969 6.769531 L 19.347656 6.769531 L 15.378906 16.671875 L 10.867188 6.769531 L 5.023438 6.769531 L 5.023438 7.109375 L 6.902344 9.375 C 7.058594 9.515625 7.160156 9.726562 7.160156 9.957031 C 7.160156 9.984375 7.160156 10.011719 7.15625 10.035156 L 7.15625 10.03125 L 7.15625 18.941406 C 7.164062 18.992188 7.171875 19.050781 7.171875 19.109375 C 7.171875 19.386719 7.058594 19.640625 6.882812 19.824219 L 4.769531 22.390625 L 4.769531 22.730469 L 10.769531 22.730469 L 10.769531 22.390625 L 8.65625 19.824219 C 8.46875 19.632812 8.355469 19.371094 8.355469 19.078125 C 8.355469 19.03125 8.359375 18.980469 8.363281 18.933594 L 8.363281 18.9375 L 8.363281 11.238281 L 13.632812 22.734375 L 14.246094 22.734375 Z M 18.765625 11.242188 "/>
</g>
</svg>
