<?xml version="1.0" encoding="UTF-8"?>
<svg xmlns="http://www.w3.org/2000/svg" xmlns:xlink="http://www.w3.org/1999/xlink" width="30px" height="30px" viewBox="0 0 30 30" version="1.1">
<g id="surface1">
<path style=" stroke:none;fill-rule:nonzero;fill:rgb(0%,0%,0%);fill-opacity:1;" d="M 1.09375 3.933594 L 28.90625 3.933594 C 29.308594 3.933594 29.636719 4.261719 29.636719 4.667969 L 29.636719 25.332031 C 29.636719 25.738281 29.308594 26.066406 28.90625 26.066406 L 1.09375 26.066406 C 0.691406 26.066406 0.363281 25.738281 0.363281 25.332031 L 0.363281 4.667969 C 0.363281 4.261719 0.691406 3.933594 1.09375 3.933594 Z M 6.269531 14.144531 C 6.269531 15.109375 4.804688 15.109375 4.804688 14.144531 C 4.804688 12.996094 5.34375 11.910156 6.246094 11.207031 C 6.191406 11.128906 6.136719 11.042969 6.089844 10.957031 C 5.859375 10.550781 5.730469 10.085938 5.730469 9.589844 C 5.730469 8.046875 6.980469 6.792969 8.527344 6.792969 C 10.070312 6.792969 11.320312 8.046875 11.320312 9.589844 C 11.320312 10.171875 11.140625 10.734375 10.804688 11.207031 C 11.710938 11.910156 12.246094 12.996094 12.246094 14.144531 C 12.246094 15.109375 10.78125 15.109375 10.78125 14.144531 C 10.78125 13.316406 10.335938 12.5625 9.609375 12.164062 C 9.269531 12.308594 8.894531 12.382812 8.527344 12.382812 C 8.15625 12.382812 7.78125 12.308594 7.441406 12.164062 C 6.714844 12.5625 6.269531 13.316406 6.269531 14.144531 Z M 4.316406 17.40625 L 12.734375 17.40625 C 13.140625 17.40625 13.46875 17.734375 13.46875 18.136719 L 13.46875 22.472656 C 13.46875 22.878906 13.140625 23.207031 12.734375 23.207031 L 4.316406 23.207031 C 3.910156 23.207031 3.585938 22.878906 3.585938 22.472656 L 3.585938 18.136719 C 3.585938 17.734375 3.910156 17.40625 4.316406 17.40625 Z M 12.003906 18.867188 L 5.046875 18.867188 L 5.046875 21.742188 L 12.003906 21.742188 Z M 8.527344 8.257812 C 7.789062 8.257812 7.191406 8.851562 7.191406 9.589844 C 7.191406 10.335938 7.792969 10.921875 8.527344 10.921875 C 9.261719 10.921875 9.859375 10.332031 9.859375 9.589844 C 9.859375 8.851562 9.261719 8.257812 8.527344 8.257812 Z M 15.03125 9.289062 C 14.070312 9.289062 14.070312 7.824219 15.03125 7.824219 L 25.683594 7.824219 C 26.648438 7.824219 26.648438 9.289062 25.683594 9.289062 Z M 16.691406 22.175781 C 15.726562 22.175781 15.726562 20.710938 16.691406 20.710938 L 25.683594 20.710938 C 26.648438 20.710938 26.648438 22.175781 25.683594 22.175781 Z M 15.03125 12.511719 C 14.070312 12.511719 14.070312 11.046875 15.03125 11.046875 L 25.683594 11.046875 C 26.648438 11.046875 26.648438 12.511719 25.683594 12.511719 Z M 16.691406 15.730469 C 15.726562 15.730469 15.726562 14.269531 16.691406 14.269531 L 25.683594 14.269531 C 26.648438 14.269531 26.648438 15.730469 25.683594 15.730469 Z M 16.691406 18.953125 C 15.726562 18.953125 15.726562 17.488281 16.691406 17.488281 L 25.683594 17.488281 C 26.648438 17.488281 26.648438 18.953125 25.683594 18.953125 Z M 28.175781 5.398438 L 1.824219 5.398438 L 1.824219 24.601562 L 28.175781 24.601562 Z M 28.175781 5.398438 "/>
</g>
</svg>
